<svg width="700" height="700" viewBox="0 0 700 700" fill="none" xmlns="http://www.w3.org/2000/svg">
<path d="M41.3253 111.317C51.2979 71.7987 82.3366 41.6748 122.087 32.6733C184.432 18.5553 281.607 0 361.703 0C439.66 0 535.626 17.577 599.534 31.5326C642.983 41.0203 675.84 75.4783 682.354 119.471C688.759 162.732 695.877 223.479 699.167 295.397C703.144 382.342 692.105 508.221 682.44 596.419C675.922 655.907 625.262 700 565.417 700H138C89.8879 700 46.5262 671.156 33.6984 624.785C20.0325 575.385 5.02111 504.781 0.734648 422.507C-4.81783 315.933 22.3158 186.645 41.3253 111.317Z" fill="#CCF0E6"/>
</svg>
